<svg width="32" height="32" viewBox="0 0 32 32" fill="none" xmlns="http://www.w3.org/2000/svg">
<path opacity="0.4" d="M28.9865 12.5865L2.6665 12.5865L2.6665 8.55984C2.6665 5.3065 5.3065 2.6665 8.55984 2.6665H11.6665C13.8398 2.6665 14.5198 3.37317 15.3865 4.53317L17.2532 7.01317C17.6665 7.55984 17.7198 7.63984 18.4932 7.63984L22.2132 7.63984C25.3732 7.6265 28.0665 9.7065 28.9865 12.5865Z" fill="#9C6946"/>
<path d="M29.3198 14.4531C29.2932 13.7998 29.1865 13.1864 28.9865 12.5864L2.6665 12.5864L2.6665 22.1998C2.6665 26.1331 5.8665 29.3331 9.79984 29.3331L22.1998 29.3331C26.1332 29.3331 29.3332 26.1331 29.3332 22.1998V14.7598C29.3332 14.6664 29.3332 14.5464 29.3198 14.4531ZM19.3332 21.6664H17.0798V23.9998C17.0798 24.5464 16.6265 24.9998 16.0798 24.9998C15.5332 24.9998 15.0798 24.5464 15.0798 23.9998V21.6664H12.6665C12.1198 21.6664 11.6665 21.2131 11.6665 20.6664C11.6665 20.1198 12.1198 19.6664 12.6665 19.6664H15.0798V17.3331C15.0798 16.7864 15.5332 16.3331 16.0798 16.3331C16.6265 16.3331 17.0798 16.7864 17.0798 17.3331V19.6664H19.3332C19.8798 19.6664 20.3332 20.1198 20.3332 20.6664C20.3332 21.2131 19.8798 21.6664 19.3332 21.6664Z" fill="#9C6946"/>
</svg>
