<svg width="32" height="32" viewBox="0 0 32 32" fill="none" xmlns="http://www.w3.org/2000/svg">
<path opacity="0.4" d="M21.6534 4.86621H10.3467C7.05339 4.86621 4.38672 7.54621 4.38672 10.8262V23.3729C4.38672 26.6529 7.06672 29.3329 10.3467 29.3329H21.6401C24.9334 29.3329 27.6 26.6529 27.6 23.3729V10.8262C27.6134 7.53288 24.9334 4.86621 21.6534 4.86621Z" fill="#FF731D"/>
<path d="M19.1333 2.66699H12.8667C11.48 2.66699 10.3467 3.78699 10.3467 5.17366V6.42699C10.3467 7.81366 11.4667 8.93366 12.8533 8.93366H19.1333C20.52 8.93366 21.64 7.81366 21.64 6.42699V5.17366C21.6533 3.78699 20.52 2.66699 19.1333 2.66699Z" fill="#FF731D"/>
</svg>
