<svg width="18" height="11" viewBox="0 0 18 11" fill="none" xmlns="http://www.w3.org/2000/svg">
<g clip-path="url(#clip0_463_14561)">
<path fill-rule="evenodd" clip-rule="evenodd" d="M0.262524 6.90054C0.0948669 6.73437 8.60976e-05 6.50841 -0.000967693 6.27236C-0.00148948 6.15548 0.021015 6.03964 0.0652608 5.93146C0.109507 5.82328 0.174627 5.72487 0.256905 5.64185C0.339182 5.55884 0.437005 5.49284 0.544788 5.44763C0.652571 5.40242 0.768203 5.37888 0.885083 5.37836C1.12113 5.37731 1.34793 5.47007 1.51559 5.63623C2.76303 6.87947 3.97817 8.11708 5.24247 9.35188L4.71428 9.97701L4.66511 10.029C4.49836 10.1957 4.27224 10.2893 4.03647 10.2893C3.8007 10.2893 3.57458 10.1957 3.40783 10.029L0.262524 6.90054ZM4.21417 6.38779C4.12546 6.30768 4.05381 6.21049 4.0035 6.10206C3.9532 5.99362 3.92527 5.87615 3.9214 5.75668C3.91752 5.6372 3.93777 5.51817 3.98094 5.4067C4.02411 5.29523 4.08932 5.19361 4.17265 5.10791C4.25599 5.02222 4.35575 4.9542 4.46597 4.90793C4.57619 4.86166 4.69461 4.83809 4.81414 4.83863C4.93368 4.83916 5.05188 4.8638 5.16168 4.91105C5.27148 4.95831 5.37063 5.02721 5.45319 5.11366L8.96514 8.53851L15.6828 0.591666C16.4372 -0.30037 17.79 0.850145 17.0398 1.74078L9.70265 10.4153L9.66051 10.4617C9.49601 10.6306 9.27114 10.7273 9.03536 10.7304C8.79959 10.7336 8.57221 10.643 8.40323 10.4785L4.21417 6.38779ZM8.25432 5.79638L8.21078 5.84274L6.93664 4.59951L10.0679 0.890884C10.8223 -0.00115207 12.1751 1.14796 11.4263 2.04L8.25152 5.79638H8.25432Z" fill="#22C55E"/>
</g>
<defs>
<clipPath id="clip0_463_14561">
<rect width="17.262" height="10.46" fill="white" transform="translate(0 0.269531)"/>
</clipPath>
</defs>
</svg>
