<svg width="48" height="48" viewBox="0 0 32 32" fill="none" xmlns="http://www.w3.org/2000/svg">
<path d="M16 24.9993C15.4533 24.9993 15 24.546 15 23.9993V22.666C15 22.1193 15.4533 21.666 16 21.666C16.5467 21.666 17 22.1193 17 22.666V23.9993C17 24.546 16.5467 24.9993 16 24.9993Z" fill="#44403C"/>
<path d="M16 30.3333C15.4533 30.3333 15 29.88 15 29.3333V28C15 27.4533 15.4533 27 16 27C16.5467 27 17 27.4533 17 28V29.3333C17 29.88 16.5467 30.3333 16 30.3333Z" fill="#44403C"/>
<path d="M2.66679 30.3341C2.58679 30.3341 2.5068 30.3207 2.4268 30.3074C1.89347 30.1741 1.56013 29.6274 1.69346 29.0941L3.0268 23.7608C3.16013 23.2274 3.69345 22.8941 4.24011 23.0274C4.77345 23.1608 5.10678 23.7074 4.97345 24.2407L3.64012 29.5741C3.52012 30.0274 3.12012 30.3341 2.66679 30.3341Z" fill="#44403C"/>
<path d="M29.3334 30.3329C28.8801 30.3329 28.4801 30.0262 28.3601 29.5729L27.0268 24.2396C26.8934 23.7062 27.2134 23.1596 27.7601 23.0263C28.2934 22.8929 28.8401 23.2129 28.9734 23.7596L30.3067 29.0929C30.4401 29.6263 30.1201 30.1729 29.5734 30.3062C29.4934 30.3196 29.4134 30.3329 29.3334 30.3329Z" fill="#44403C"/>
<path opacity="0.4" d="M25.6801 12.6931C25.5335 11.1198 25.1202 9.45312 22.0668 9.45312H9.93349C6.88015 9.45312 6.46683 11.1331 6.32016 12.6931L5.78682 18.4797C5.72015 19.1997 5.96015 19.9197 6.45348 20.4664C6.96015 21.0131 7.68017 21.3331 8.42683 21.3331H10.2135C11.7468 21.3331 12.0401 20.4531 12.2401 19.8665L12.4268 19.2931C12.6402 18.6397 12.6935 18.4797 13.5602 18.4797H18.4268C19.2802 18.4797 19.3068 18.5731 19.5602 19.2931L19.7468 19.8665C19.9468 20.4531 20.2402 21.3331 21.7735 21.3331H23.5602C24.3068 21.3331 25.0268 21.0131 25.5335 20.4664C26.0268 19.9331 26.2668 19.1997 26.2001 18.4797L25.6801 12.6931Z" fill="#44403C"/>
<path d="M24.5601 6.58602H23.6134C23.6001 6.58602 23.6001 6.58602 23.6001 6.58602L23.2401 4.86605C22.8934 3.19938 22.1867 1.66602 19.3467 1.66602H16.7201H15.2934H12.6667C9.82673 1.66602 9.12006 3.19938 8.7734 4.86605L8.41339 6.58602C8.40006 6.58602 8.40007 6.58602 8.40007 6.58602H7.45339C7.05339 6.58602 6.7334 6.90599 6.7334 7.30599C6.7334 7.70599 7.05339 8.02604 7.45339 8.02604H8.1334L7.7334 9.9327C8.2534 9.63936 8.96007 9.45272 9.94674 9.45272H22.0801C23.0667 9.45272 23.7867 9.63936 24.2934 9.9327L23.8934 8.02604H24.5734C24.9734 8.02604 25.2934 7.70599 25.2934 7.30599C25.2801 6.90599 24.9601 6.58602 24.5601 6.58602Z" fill="#44403C"/>
<path d="M13.1466 14.6803H10.2933C9.89325 14.6803 9.57324 14.3602 9.57324 13.9602C9.57324 13.5602 9.89325 13.2402 10.2933 13.2402H13.1466C13.5466 13.2402 13.8666 13.5602 13.8666 13.9602C13.8532 14.3602 13.5333 14.6803 13.1466 14.6803Z" fill="#44403C"/>
<path d="M21.7066 14.6803H18.8533C18.4533 14.6803 18.1333 14.3602 18.1333 13.9602C18.1333 13.5602 18.4533 13.2402 18.8533 13.2402H21.7066C22.1066 13.2402 22.4266 13.5602 22.4266 13.9602C22.4266 14.3602 22.1066 14.6803 21.7066 14.6803Z" fill="#44403C"/>
</svg>
