<svg width="32" height="32" viewBox="0 0 32 32" fill="none" xmlns="http://www.w3.org/2000/svg">
<path opacity="0.4" d="M2.66667 20.6402L2.66667 26.6935C2.66667 28.5735 3.52 29.3335 5.64 29.3335L11.0267 29.3335C13.1467 29.3335 14 28.5735 14 26.6935L14 20.6535C14 18.7602 13.1467 18.0135 11.0267 18.0135L5.64 18.0135C3.52 18.0002 2.66667 18.7602 2.66667 20.6402Z" fill="#9C6946"/>
<path d="M2.66667 5.64L2.66667 11.0267C2.66667 13.1467 3.52 14 5.64 14L11.0267 14C13.1467 14 14 13.1467 14 11.0267L14 5.64C14 3.52 13.1467 2.66667 11.0267 2.66667L5.64 2.66667C3.52 2.66667 2.66667 3.52 2.66667 5.64Z" fill="#9C6946"/>
<path d="M18.0002 20.6402L18.0002 26.6935C18.0002 28.5735 18.8535 29.3335 20.9735 29.3335L26.3602 29.3335C28.4802 29.3335 29.3335 28.5735 29.3335 26.6935L29.3335 20.6535C29.3335 18.7602 28.4802 18.0135 26.3602 18.0135L20.9735 18.0135C18.8535 18.0002 18.0002 18.7602 18.0002 20.6402Z" fill="#9C6946"/>
<path opacity="0.4" d="M18.0002 5.64L18.0002 11.0267C18.0002 13.1467 18.8535 14 20.9735 14L26.3602 14C28.4802 14 29.3335 13.1467 29.3335 11.0267L29.3335 5.64C29.3335 3.52 28.4802 2.66667 26.3602 2.66667L20.9735 2.66667C18.8535 2.66667 18.0002 3.52 18.0002 5.64Z" fill="#9C6946"/>
</svg>
