<svg width="325" height="90" viewBox="0 0 325 90" fill="none" xmlns="http://www.w3.org/2000/svg">
<path d="M3.33203 16.1797V32.8438C3.33203 35.5625 3.93555 37.6016 5.14258 38.9609C6.36133 40.3203 8.2832 41 10.9082 41H11.3301V35.9199H10.9082C9.75977 35.9199 9.00977 35.6504 8.6582 35.1113C8.31836 34.5723 8.14844 33.6758 8.14844 32.4219V16.1797H3.33203ZM10.6797 41H13.9316C14.2246 42.2773 14.7637 43.5312 15.5488 44.7617C16.3457 46.0039 17.2832 47.123 18.3613 48.1191C19.4395 49.127 20.5527 49.9062 21.7012 50.457L24.7773 47.5918C24.7539 47.2637 24.7363 46.9414 24.7246 46.625C24.7129 46.3086 24.707 45.998 24.707 45.6934C24.707 44.9082 24.7715 44.2227 24.9004 43.6367C25.0293 43.0508 25.2402 42.5586 25.5332 42.1602C25.8379 41.7734 26.2422 41.4805 26.7461 41.2812C27.2617 41.0938 27.9004 41 28.6621 41H29.2598V35.9199H28.6973C27.8418 35.9199 26.9863 36.1543 26.1309 36.623C25.2754 37.0801 24.4785 37.7012 23.7402 38.4863C23.002 39.2598 22.3633 40.127 21.8242 41.0879C21.2852 42.0488 20.8867 43.0332 20.6289 44.041C20.3125 43.7715 20.0078 43.4551 19.7148 43.0918C19.4336 42.7285 19.1816 42.3594 18.959 41.9844C18.7363 41.6094 18.5723 41.252 18.4668 40.9121C19.4512 40.5957 20.3887 40.1035 21.2793 39.4355C22.1816 38.7559 22.9844 37.9531 23.6875 37.0273C24.3906 36.1016 24.9473 35.1113 25.3574 34.0566C25.7676 33.002 25.9727 31.9297 25.9727 30.8398C25.9727 29.668 25.7559 28.6191 25.3223 27.6934C24.9004 26.7676 24.2852 26.0352 23.4766 25.4961C22.6797 24.9453 21.7129 24.6699 20.5762 24.6699C19.2754 24.6699 18.1738 25.0156 17.2715 25.707C16.3809 26.3984 15.6602 27.3008 15.1094 28.4141C14.5703 29.5156 14.1777 30.6934 13.9316 31.9473C13.6973 33.2012 13.5801 34.3906 13.5801 35.5156V35.9199H10.6797V41ZM20.3828 29.5742C20.8516 29.5742 21.2266 29.7207 21.5078 30.0137C21.7891 30.3066 21.9297 30.7051 21.9297 31.209C21.9297 32.0059 21.748 32.7559 21.3848 33.459C21.0215 34.1504 20.5352 34.7188 19.9258 35.1641C19.3281 35.6094 18.6719 35.8613 17.957 35.9199V35.5156C17.957 34.9531 17.998 34.332 18.0801 33.6523C18.1738 32.9609 18.3145 32.3105 18.502 31.7012C18.7012 31.0801 18.9531 30.5703 19.2578 30.1719C19.5625 29.7734 19.9375 29.5742 20.3828 29.5742ZM28.5566 35.9199V41H29.4004V35.9199H28.5566ZM32.1777 43.0742L29.0312 46.2383L32.1777 49.3848L35.3418 46.2383L32.1777 43.0742ZM30.8945 41C32.7812 41 34.2812 40.6543 35.3945 39.9629C36.5078 39.2598 37.3105 38.2812 37.8027 37.0273C38.2949 35.7617 38.541 34.2793 38.541 32.5801C38.541 31.5371 38.4648 30.459 38.3125 29.3457C38.1602 28.2324 37.9316 27.0723 37.627 25.8652L33.0742 27.0957C33.4258 28.4434 33.6719 29.6387 33.8125 30.6816C33.9531 31.7129 34.0234 32.5566 34.0234 33.2129C34.0234 34.3027 33.7539 35.0293 33.2148 35.3926C32.6758 35.7441 31.8906 35.9199 30.8594 35.9199H28.9434V41H30.8945ZM60.6895 34.0742C60.6895 34.707 60.4375 35.1758 59.9336 35.4805C59.4297 35.7734 58.7031 35.9199 57.7539 35.9199C56.8633 35.9199 56.1543 35.7734 55.627 35.4805C55.1113 35.1758 54.8535 34.7539 54.8535 34.2148C54.8535 33.8164 54.9941 33.3828 55.2754 32.9141C55.5566 32.4453 55.9023 31.9824 56.3125 31.5254C56.7344 31.0566 57.1504 30.6406 57.5605 30.2773C58.0176 30.6172 58.4863 31.0098 58.9668 31.4551C59.4473 31.9004 59.8516 32.3574 60.1797 32.8262C60.5195 33.2832 60.6895 33.6992 60.6895 34.0742ZM54.0801 27.2715C53.0371 28.4551 52.1523 29.6152 51.4258 30.752C50.7109 31.8887 50.3535 33.1953 50.3535 34.6719C50.3535 36.4648 50.9805 37.959 52.2344 39.1543C53.5 40.3379 55.3457 40.9297 57.7715 40.9297C59.2012 40.9297 60.4727 40.6543 61.5859 40.1035C62.7109 39.5527 63.5898 38.7676 64.2227 37.748C64.8555 36.7168 65.1719 35.4805 65.1719 34.0391C65.1719 32.9141 64.9082 31.8535 64.3809 30.8574C63.8652 29.8496 63.1738 28.8945 62.3066 27.9922C61.4512 27.0898 60.502 26.2227 59.459 25.3906C58.4277 24.5469 57.3848 23.709 56.3301 22.877L53.377 26.6562L54.0801 27.2715ZM64.5039 50.5977C66.7188 50.1523 68.6465 49.3789 70.2871 48.2773C71.9395 47.1875 73.2168 45.7578 74.1191 43.9883C75.0332 42.2305 75.4902 40.1211 75.4902 37.6602C75.4902 36.3008 75.3672 34.8887 75.1211 33.4238C74.8867 31.9473 74.541 30.5645 74.084 29.2754L69.3379 30.8047C69.7246 31.9531 70.0879 33.1953 70.4277 34.5312C70.7676 35.8672 70.9375 37.0625 70.9375 38.1172C70.9375 39.7109 70.6035 41.0117 69.9355 42.0195C69.2793 43.0391 68.3359 43.8477 67.1055 44.4453C65.875 45.043 64.4102 45.5234 62.7109 45.8867L64.5039 50.5977ZM79.2344 16.1797V32.8438C79.2344 35.5625 79.8379 37.6016 81.0449 38.9609C82.2637 40.3203 84.1855 41 86.8105 41H87.2324V35.9199H86.8105C85.6621 35.9199 84.9121 35.6504 84.5605 35.1113C84.2207 34.5723 84.0508 33.6758 84.0508 32.4219V16.1797H79.2344ZM98.6055 43.0742L95.459 46.2383L98.6055 49.3848L101.77 46.2383L98.6055 43.0742ZM86.582 35.9199V41H89.4824C91.2168 41 92.7988 40.8301 94.2285 40.4902C95.6582 40.1504 97.0527 39.6816 98.4121 39.084C99.7832 38.4746 101.219 37.7715 102.719 36.9746C103.809 36.4004 104.775 35.9023 105.619 35.4805C106.475 35.0469 107.295 34.6953 108.08 34.4258C108.865 34.1445 109.703 33.9453 110.594 33.8281V29.1875C109.879 29.1406 109.223 29.0703 108.625 28.9766C108.039 28.8828 107.441 28.7363 106.832 28.5371C106.223 28.3379 105.531 28.0742 104.758 27.7461C103.996 27.4062 103.082 26.9727 102.016 26.4453C101.055 25.9766 100.094 25.5488 99.1328 25.1621C98.1836 24.7754 97.1523 24.582 96.0391 24.582C94.4805 24.582 93.0801 25.0332 91.8379 25.9355C90.6074 26.8379 89.582 27.9629 88.7617 29.3105L87.9707 30.5938L91.9082 32.5098L92.8398 31.332C93.168 30.9102 93.6191 30.5 94.1934 30.1016C94.7793 29.7031 95.3887 29.5039 96.0215 29.5039C96.1152 29.5039 96.25 29.5273 96.4258 29.5742C96.6133 29.6094 96.8242 29.668 97.0586 29.75C97.3047 29.832 97.5859 29.9258 97.9023 30.0312C98.2656 30.1602 98.7227 30.3359 99.2734 30.5586C99.8359 30.7695 100.41 30.9922 100.996 31.2266C101.582 31.4609 102.092 31.666 102.525 31.8418C100.85 32.6973 99.3145 33.4297 97.9199 34.0391C96.5254 34.6484 95.1543 35.1172 93.8066 35.4453C92.4707 35.7617 91.0469 35.9199 89.5352 35.9199H86.582ZM119.014 16.1797H114.197V40.9824H119.014V16.1797ZM149.318 41H149.916V35.9199H149.389C148.545 35.9199 147.895 35.6328 147.438 35.0586C146.992 34.4844 146.723 33.875 146.629 33.2305L144.959 21.9453L140.705 22.8066L140.828 23.6504C139.68 24.002 138.566 24.4238 137.488 24.916C136.422 25.4082 135.455 26 134.588 26.6914C133.721 27.3711 133.029 28.1562 132.514 29.0469C132.01 29.9375 131.758 30.9512 131.758 32.0879C131.758 34.1504 132.402 35.7148 133.691 36.7812C134.992 37.8477 136.621 38.3809 138.578 38.3809C139.387 38.3809 140.148 38.252 140.863 37.9941C141.578 37.7363 142.287 37.3379 142.99 36.7988C143.295 37.748 143.734 38.5332 144.309 39.1543C144.883 39.7754 145.586 40.2383 146.418 40.543C147.262 40.8477 148.229 41 149.318 41ZM142.023 31.3848C142.023 31.8652 141.842 32.2695 141.479 32.5977C141.115 32.9258 140.664 33.1719 140.125 33.3359C139.586 33.4883 139.041 33.5645 138.49 33.5645C137.869 33.5645 137.359 33.418 136.961 33.125C136.562 32.832 136.363 32.4395 136.363 31.9473C136.363 31.5723 136.516 31.2148 136.82 30.875C137.137 30.5352 137.541 30.2129 138.033 29.9082C138.537 29.5918 139.094 29.3105 139.703 29.0645C140.324 28.8066 140.951 28.5664 141.584 28.3438L141.883 30.1895C141.93 30.4121 141.965 30.623 141.988 30.8223C142.012 31.0215 142.023 31.209 142.023 31.3848ZM151.199 41C153.086 41 154.586 40.6543 155.699 39.9629C156.812 39.2598 157.615 38.2812 158.107 37.0273C158.6 35.7617 158.846 34.2793 158.846 32.5801C158.846 31.5371 158.77 30.459 158.617 29.3457C158.465 28.2324 158.236 27.0723 157.932 25.8652L153.379 27.0957C153.73 28.4434 153.977 29.6387 154.117 30.6816C154.258 31.7129 154.328 32.5566 154.328 33.2129C154.328 34.3027 154.059 35.0293 153.52 35.3926C152.98 35.7441 152.195 35.9199 151.164 35.9199H149.248V41H151.199ZM154.1 17.7441L150.953 20.9082L154.1 24.0547L157.264 20.9082L154.1 17.7441ZM162.66 16.1797V32.8438C162.66 35.5625 163.264 37.6016 164.471 38.9609C165.689 40.3203 167.611 41 170.236 41H170.658V35.9199H170.236C169.088 35.9199 168.338 35.6504 167.986 35.1113C167.646 34.5723 167.477 33.6758 167.477 32.4219V16.1797H162.66ZM181.486 31.4551C182.295 31.4551 182.928 31.7246 183.385 32.2637C183.854 32.8027 184.088 33.4473 184.088 34.1973C184.088 34.7832 183.953 35.2988 183.684 35.7441C183.426 36.1895 182.98 36.4121 182.348 36.4121C182.078 36.4121 181.768 36.3652 181.416 36.2715C181.076 36.1777 180.695 36.0078 180.273 35.7617C180.004 35.6094 179.711 35.4219 179.395 35.1992C179.09 34.9766 178.768 34.7129 178.428 34.4082C178.627 33.9863 178.867 33.5527 179.148 33.1074C179.441 32.6504 179.781 32.2637 180.168 31.9473C180.555 31.6191 180.994 31.4551 181.486 31.4551ZM182.33 41.4043C183.713 41.4043 184.861 41.0879 185.775 40.4551C186.701 39.8223 187.393 38.9609 187.85 37.8711C188.307 36.7812 188.535 35.5449 188.535 34.1621C188.535 32.8145 188.242 31.5723 187.656 30.4355C187.07 29.2871 186.238 28.3672 185.16 27.6758C184.082 26.9727 182.805 26.6211 181.328 26.6211C180.273 26.6211 179.348 26.8438 178.551 27.2891C177.766 27.7344 177.08 28.3145 176.494 29.0293C175.908 29.7324 175.375 30.4766 174.895 31.2617C174.426 32.0469 173.975 32.7969 173.541 33.5117C173.107 34.2148 172.662 34.7949 172.205 35.252C171.748 35.6973 171.232 35.9199 170.658 35.9199H170.008V41H170.746C171.637 41 172.375 40.8945 172.961 40.6836C173.559 40.4727 174.074 40.1973 174.508 39.8574C174.953 39.5059 175.387 39.1133 175.809 38.6797C176.488 39.1953 177.174 39.6582 177.865 40.0684C178.557 40.4785 179.271 40.8008 180.01 41.0352C180.748 41.2812 181.521 41.4043 182.33 41.4043ZM192.332 16.1797V32.8438C192.332 35.5625 192.936 37.6016 194.143 38.9609C195.361 40.3203 197.283 41 199.908 41H200.33V35.9199H199.908C198.76 35.9199 198.01 35.6504 197.658 35.1113C197.318 34.5723 197.148 33.6758 197.148 32.4219V16.1797H192.332ZM211.721 41C212.752 41 213.689 40.7832 214.533 40.3496C215.377 39.916 216.098 39.3828 216.695 38.75C217.188 39.3828 217.803 39.916 218.541 40.3496C219.291 40.7832 220.199 41 221.266 41C222.848 40.9883 224.096 40.5957 225.01 39.8223C225.924 39.0488 226.574 38.0234 226.961 36.7461C227.359 35.457 227.559 34.0508 227.559 32.5273C227.559 31.4492 227.477 30.3652 227.312 29.2754C227.16 28.1855 226.943 27.1074 226.662 26.041L222.092 27.2188C222.314 28.1094 222.531 29.0938 222.742 30.1719C222.965 31.25 223.076 32.1992 223.076 33.0195C223.076 33.5352 223.018 34.0156 222.9 34.4609C222.795 34.8945 222.602 35.2461 222.32 35.5156C222.051 35.7852 221.676 35.9199 221.195 35.9199C220.715 35.9199 220.316 35.7969 220 35.5508C219.684 35.3047 219.449 34.9766 219.297 34.5664C219.145 34.1445 219.051 33.6992 219.016 33.2305L218.646 28.5723L214.234 29.1172C214.27 29.5391 214.305 30.0078 214.34 30.5234C214.387 31.0273 214.416 31.4902 214.428 31.9121C214.451 32.3223 214.463 32.6094 214.463 32.7734C214.463 33.8047 214.252 34.5898 213.83 35.1289C213.42 35.6562 212.729 35.9199 211.756 35.9199C211.217 35.9199 210.766 35.8086 210.402 35.5859C210.051 35.3516 209.775 35.0293 209.576 34.6191C209.389 34.209 209.277 33.7461 209.242 33.2305L208.873 28.5723L204.461 29.1172C204.496 29.5391 204.531 30.002 204.566 30.5059C204.602 31.0098 204.631 31.4727 204.654 31.8945C204.678 32.3047 204.689 32.5977 204.689 32.7734C204.689 33.9922 204.385 34.8242 203.775 35.2695C203.178 35.7031 202.234 35.9199 200.945 35.9199H199.68V41H200.91C202.281 41 203.436 40.8008 204.373 40.4023C205.322 40.0039 206.119 39.4648 206.764 38.7852C207.279 39.4531 207.936 39.9922 208.732 40.4023C209.529 40.8008 210.525 41 211.721 41Z" fill="#1C1917"/>
<line x1="245.5" y1="4" x2="245.5" y2="60" stroke="#FF731D"/>
<path opacity="0.4" d="M314.44 18.1867L299.08 7.44C294.893 4.50666 288.467 4.66666 284.44 7.78666L271.08 18.2133C268.413 20.2933 266.307 24.56 266.307 27.92V46.32C266.307 53.12 271.827 58.6667 278.627 58.6667H307.373C314.173 58.6667 319.693 53.1467 319.693 46.3467V28.2667C319.693 24.6667 317.373 20.24 314.44 18.1867Z" fill="#FF731D"/>
<path d="M293 50C291.907 50 291 49.0933 291 48V40C291 38.9067 291.907 38 293 38C294.093 38 295 38.9067 295 40V48C295 49.0933 294.093 50 293 50Z" fill="#FF731D"/>
<path d="M5.25293 76.9824L4.3916 77.8438L5.25293 78.7051L6.11426 77.8438L5.25293 76.9824ZM5.32812 84.4951C4.60807 84.4951 4.03158 84.3743 3.59863 84.1328C3.17025 83.8913 2.85807 83.5609 2.66211 83.1416C2.4707 82.7223 2.375 82.2461 2.375 81.7129C2.375 81.3027 2.41829 80.8835 2.50488 80.4551C2.59147 80.0221 2.69629 79.6029 2.81934 79.1973L1.91699 78.835C1.75293 79.2952 1.62533 79.7692 1.53418 80.2568C1.44303 80.7399 1.39746 81.2116 1.39746 81.6719C1.39746 82.3965 1.52962 83.0505 1.79395 83.6338C2.05827 84.2171 2.47754 84.6774 3.05176 85.0146C3.63053 85.3519 4.38932 85.5205 5.32812 85.5205C6.2806 85.5205 7.05078 85.3496 7.63867 85.0078C8.22656 84.6706 8.65495 84.2012 8.92383 83.5996C9.19271 82.998 9.32031 82.3122 9.30664 81.542C9.46159 81.7106 9.63249 81.8291 9.81934 81.8975C10.0062 81.9658 10.2546 82 10.5645 82H10.8516V80.9609H10.5439C10.1566 80.9609 9.85124 80.8766 9.62793 80.708C9.40918 80.5394 9.25423 80.3024 9.16309 79.9971L8.69824 78.5068L7.7207 78.8965C7.85286 79.2656 7.98503 79.7054 8.11719 80.2158C8.24935 80.7217 8.31543 81.2298 8.31543 81.7402C8.31543 82.2324 8.22656 82.6859 8.04883 83.1006C7.87109 83.5199 7.56576 83.8571 7.13281 84.1123C6.69987 84.3675 6.09831 84.4951 5.32812 84.4951ZM10.5781 80.9609V82H14.7139V80.9609H10.5781ZM14.4473 80.9609V82H18.583V80.9609H14.4473ZM18.3164 80.9609V82H22.4521V80.9609H18.3164ZM22.1855 80.9609V82H26.3213V80.9609H22.1855ZM26.0547 80.9609V82H30.1904V80.9609H26.0547ZM29.9238 80.9609V82H34.0596V80.9609H29.9238ZM33.793 80.9609V82H37.9287V80.9609H33.793ZM37.6621 80.9609V82H41.7979V80.9609H37.6621ZM41.5312 80.9609V82H45.667V80.9609H41.5312ZM46.8291 75.3418L51.293 73.5371V72.5322L46.4668 74.4873C46.2526 74.5739 46.0885 74.6878 45.9746 74.8291C45.8652 74.9704 45.8105 75.1299 45.8105 75.3076C45.8105 75.458 45.8561 75.6061 45.9473 75.752C46.043 75.8978 46.1592 76.0254 46.2959 76.1348C46.5557 76.3398 46.8359 76.554 47.1367 76.7773C47.4421 76.9961 47.7428 77.224 48.0391 77.4609C48.3398 77.6934 48.6133 77.9326 48.8594 78.1787C49.1055 78.4202 49.3014 78.6686 49.4473 78.9238C49.5977 79.1745 49.6729 79.4274 49.6729 79.6826C49.6729 80.0244 49.5726 80.2887 49.3721 80.4756C49.1761 80.6579 48.8844 80.7855 48.4971 80.8584C48.1097 80.9268 47.6312 80.9609 47.0615 80.9609H45.4004V82H47.0684C47.7109 82 48.2487 81.9544 48.6816 81.8633C49.1146 81.7721 49.4678 81.6309 49.7412 81.4395C50.0146 81.248 50.2311 81.0042 50.3906 80.708C50.6504 81.1364 50.9557 81.46 51.3066 81.6787C51.6576 81.8929 52.0814 82 52.5781 82H52.8242V80.9609H52.5781C52.25 80.9609 51.9652 80.8903 51.7236 80.749C51.4867 80.6077 51.2839 80.4072 51.1152 80.1475C50.9466 79.8877 50.7939 79.5755 50.6572 79.2109C50.5342 78.8737 50.3701 78.557 50.165 78.2607C49.9645 77.9645 49.7344 77.6842 49.4746 77.4199C49.2148 77.1556 48.9346 76.9049 48.6338 76.668C48.3376 76.431 48.0345 76.2031 47.7246 75.9844C47.4193 75.7656 47.1208 75.5514 46.8291 75.3418ZM60.8975 82C61.3532 82 61.7064 81.902 61.957 81.7061C62.2077 81.5055 62.415 81.2275 62.5791 80.8721C62.693 81.2458 62.9049 81.5283 63.2148 81.7197C63.5293 81.9066 63.9235 82 64.3975 82H64.6436V80.9609H64.3838C63.9645 80.9609 63.6318 80.8356 63.3857 80.585C63.1442 80.3343 63.0098 79.9857 62.9824 79.5391L62.8799 78.1104L61.9434 78.2197C61.9661 78.4795 61.9821 78.6937 61.9912 78.8623C62.0003 79.0309 62.0049 79.1927 62.0049 79.3477C62.0049 79.6803 61.9639 79.9674 61.8818 80.209C61.8044 80.446 61.6836 80.6305 61.5195 80.7627C61.3555 80.8949 61.1458 80.9609 60.8906 80.9609C60.4714 80.9609 60.166 80.8219 59.9746 80.5439C59.7878 80.266 59.6807 79.931 59.6533 79.5391L59.5508 78.2197L58.6143 78.3359C58.6279 78.5 58.6393 78.6436 58.6484 78.7666C58.6576 78.8896 58.6644 78.999 58.6689 79.0947C58.6735 79.1859 58.6758 79.2702 58.6758 79.3477C58.6758 79.8626 58.5801 80.2614 58.3887 80.5439C58.1973 80.8219 57.8441 80.9609 57.3291 80.9609C56.8916 80.9609 56.5612 80.8265 56.3379 80.5576C56.1146 80.2842 55.987 79.9447 55.9551 79.5391L55.8525 78.2197L54.916 78.3359C54.9342 78.5 54.9456 78.6436 54.9502 78.7666C54.9593 78.8896 54.9661 78.999 54.9707 79.0947C54.9753 79.1859 54.9775 79.2702 54.9775 79.3477C54.9775 79.7487 54.9115 80.0677 54.7793 80.3047C54.6517 80.5371 54.4557 80.7057 54.1914 80.8105C53.9316 80.9108 53.599 80.9609 53.1934 80.9609H52.5508V82H53.1797C53.8086 82 54.2894 81.9066 54.6221 81.7197C54.9593 81.5329 55.2305 81.2526 55.4355 80.8789C55.5905 81.2298 55.8092 81.5055 56.0918 81.7061C56.3743 81.902 56.7822 82 57.3154 82C57.7301 82 58.0902 81.9089 58.3955 81.7266C58.7008 81.5397 58.9652 81.2617 59.1885 80.8926C59.3298 81.2253 59.5326 81.4941 59.7969 81.6992C60.0658 81.8997 60.4326 82 60.8975 82ZM68.8203 78.3086C69.276 78.3086 69.627 78.4727 69.873 78.8008C70.1237 79.1243 70.249 79.5345 70.249 80.0312C70.249 80.3913 70.1533 80.6693 69.9619 80.8652C69.7751 81.0566 69.4993 81.1523 69.1348 81.1523C68.9844 81.1523 68.818 81.1204 68.6357 81.0566C68.458 80.9928 68.2734 80.8971 68.082 80.7695C67.9316 80.6738 67.779 80.5622 67.624 80.4346C67.4736 80.307 67.321 80.1611 67.166 79.9971C67.2891 79.7373 67.4281 79.4775 67.583 79.2178C67.7425 78.958 67.9225 78.7415 68.123 78.5684C68.3281 78.3952 68.5605 78.3086 68.8203 78.3086ZM69.1484 82.1572C69.5859 82.1572 69.9574 82.0706 70.2627 81.8975C70.568 81.7197 70.8005 81.4645 70.96 81.1318C71.124 80.7946 71.2061 80.3913 71.2061 79.9219C71.2061 79.4342 71.1058 78.9922 70.9053 78.5957C70.7093 78.1992 70.4313 77.8848 70.0713 77.6523C69.7158 77.4199 69.2965 77.3037 68.8135 77.3037C68.4033 77.3037 68.057 77.3926 67.7744 77.5703C67.4964 77.7435 67.2594 77.9691 67.0635 78.2471C66.8675 78.5251 66.6898 78.8213 66.5303 79.1357C66.3708 79.4456 66.2067 79.7396 66.0381 80.0176C65.874 80.2956 65.6849 80.5234 65.4707 80.7012C65.2565 80.8743 64.9945 80.9609 64.6846 80.9609H64.377V82H64.7119C65.0355 82 65.3089 81.9544 65.5322 81.8633C65.7555 81.7721 65.9561 81.6445 66.1338 81.4805C66.3115 81.3164 66.4915 81.1227 66.6738 80.8994C66.9336 81.1455 67.1911 81.3643 67.4463 81.5557C67.7015 81.7471 67.9658 81.8952 68.2393 82C68.5173 82.1048 68.8203 82.1572 69.1484 82.1572ZM80.3594 85.5205C81.0566 85.5205 81.6719 85.443 82.2051 85.2881C82.7428 85.1331 83.1917 84.9258 83.5518 84.666C83.9163 84.4108 84.1898 84.126 84.3721 83.8115C84.5589 83.5016 84.6523 83.1917 84.6523 82.8818C84.6523 82.7269 84.6341 82.5765 84.5977 82.4307C84.5612 82.2848 84.486 82.1436 84.3721 82.0068H84.8711V80.9678H81.1934C81.1432 80.9678 81.1045 80.9814 81.0771 81.0088C81.0544 81.0361 81.0475 81.068 81.0566 81.1045L81.2139 81.665C81.2412 81.7699 81.2731 81.8542 81.3096 81.918C81.3506 81.9772 81.4098 82.0068 81.4873 82.0068H82.4375C82.8613 82.0068 83.1803 82.0889 83.3945 82.2529C83.6133 82.417 83.7227 82.6335 83.7227 82.9023C83.7227 83.1393 83.5814 83.3809 83.2988 83.627C83.0163 83.873 82.6221 84.0781 82.1162 84.2422C81.6104 84.4108 81.0247 84.4951 80.3594 84.4951C79.6302 84.4951 79.0492 84.3721 78.6162 84.126C78.1833 83.8799 77.8711 83.5449 77.6797 83.1211C77.4928 82.7018 77.3994 82.2279 77.3994 81.6992C77.3994 81.4486 77.4199 81.1546 77.4609 80.8174C77.502 80.4756 77.5817 80.0928 77.7002 79.6689L76.791 79.334C76.6361 79.8125 76.5335 80.2454 76.4834 80.6328C76.4378 81.0202 76.415 81.3665 76.415 81.6719C76.415 82.3874 76.5472 83.0345 76.8115 83.6133C77.0804 84.1966 77.502 84.6592 78.0762 85.001C78.6549 85.3473 79.416 85.5205 80.3594 85.5205ZM84.5977 80.9609V82H88.7334V80.9609H84.5977ZM88.4668 80.9609V82H92.6025V80.9609H88.4668ZM92.3359 80.9609V82H96.4717V80.9609H92.3359ZM96.2051 80.9609V82H100.341V80.9609H96.2051ZM100.074 80.9609V82H104.21V80.9609H100.074ZM103.943 80.9609V82H108.079V80.9609H103.943ZM107.812 80.9609V82H111.948V80.9609H107.812ZM111.682 80.9609V82H115.817V80.9609H111.682ZM115.551 80.9609V82H119.687V80.9609H115.551ZM119.42 80.9609V82H123.556V80.9609H119.42ZM123.289 80.9609V82H127.425V80.9609H123.289ZM127.158 80.9609V82H131.294V80.9609H127.158ZM131.027 80.9609V82H135.163V80.9609H131.027ZM134.896 80.9609V82H139.032V80.9609H134.896ZM138.766 80.9609V82H142.901V80.9609H138.766ZM142.635 80.9609V82H146.771V80.9609H142.635ZM146.504 80.9609V82H150.64V80.9609H146.504ZM150.373 80.9609V82H154.509V80.9609H150.373ZM154.242 80.9609V82H158.378V80.9609H154.242ZM158.111 80.9609V82H162.247V80.9609H158.111ZM166.745 82C167.16 82 167.52 81.9089 167.825 81.7266C168.131 81.5397 168.395 81.2617 168.618 80.8926C168.759 81.2253 168.962 81.4941 169.227 81.6992C169.495 81.8997 169.862 82 170.327 82C170.838 81.9954 171.243 81.8678 171.544 81.6172C171.845 81.362 172.061 81.0293 172.193 80.6191C172.326 80.209 172.392 79.7692 172.392 79.2998C172.392 78.9717 172.367 78.6436 172.316 78.3154C172.271 77.9873 172.209 77.6751 172.132 77.3789L171.161 77.6455C171.198 77.7868 171.234 77.9577 171.271 78.1582C171.312 78.3587 171.346 78.5684 171.373 78.7871C171.4 79.0059 171.414 79.2223 171.414 79.4365C171.414 79.7054 171.38 79.9561 171.312 80.1885C171.243 80.4209 171.129 80.6077 170.97 80.749C170.81 80.8903 170.594 80.9609 170.32 80.9609C169.901 80.9609 169.596 80.8219 169.404 80.5439C169.217 80.266 169.11 79.931 169.083 79.5391L168.98 78.2197L168.044 78.3359C168.058 78.5 168.069 78.6436 168.078 78.7666C168.087 78.8896 168.094 78.999 168.099 79.0947C168.103 79.1859 168.105 79.2702 168.105 79.3477C168.105 79.8626 168.01 80.2614 167.818 80.5439C167.627 80.8219 167.274 80.9609 166.759 80.9609C166.321 80.9609 165.991 80.8265 165.768 80.5576C165.544 80.2842 165.417 79.9447 165.385 79.5391L165.282 78.2197L164.346 78.3359C164.364 78.5 164.375 78.6436 164.38 78.7666C164.389 78.8896 164.396 78.999 164.4 79.0947C164.405 79.1859 164.407 79.2702 164.407 79.3477C164.407 79.7487 164.341 80.0677 164.209 80.3047C164.081 80.5371 163.885 80.7057 163.621 80.8105C163.361 80.9108 163.029 80.9609 162.623 80.9609H161.98V82H162.609C163.238 82 163.719 81.9066 164.052 81.7197C164.389 81.5329 164.66 81.2526 164.865 80.8789C165.02 81.2298 165.239 81.5055 165.521 81.7061C165.804 81.902 166.212 82 166.745 82ZM172.351 85.6572C173.171 85.4886 173.848 85.1855 174.381 84.748C174.919 84.3151 175.317 83.7865 175.577 83.1621C175.841 82.5378 175.974 81.8542 175.974 81.1113C175.974 80.6966 175.933 80.2705 175.851 79.833C175.773 79.3955 175.659 78.9535 175.509 78.5068L174.565 78.8213C174.711 79.2542 174.823 79.6781 174.9 80.0928C174.978 80.5029 175.017 80.8971 175.017 81.2754C175.017 81.8451 174.914 82.3623 174.709 82.8271C174.504 83.292 174.183 83.6885 173.745 84.0166C173.308 84.3447 172.733 84.5931 172.022 84.7617L172.351 85.6572ZM181.736 82H181.982V80.9609H181.682C181.322 80.9609 181.03 80.8675 180.807 80.6807C180.583 80.4938 180.422 80.2113 180.321 79.833L179.973 78.5068L179.036 78.8213C179.182 79.2542 179.294 79.6781 179.371 80.0928C179.449 80.5029 179.487 80.8971 179.487 81.2754C179.487 81.8451 179.385 82.3623 179.18 82.8271C178.975 83.292 178.653 83.6885 178.216 84.0166C177.778 84.3447 177.204 84.5931 176.493 84.7617L176.821 85.6572C177.614 85.4886 178.268 85.2038 178.783 84.8027C179.303 84.4017 179.695 83.9163 179.959 83.3467C180.228 82.7816 180.381 82.1686 180.417 81.5078C180.535 81.6354 180.702 81.7493 180.916 81.8496C181.135 81.9499 181.408 82 181.736 82ZM181.702 80.9609V82H182.03V80.9609H181.702ZM183.11 83.1758L182.249 84.0371L183.11 84.8984L183.972 84.0371L183.11 83.1758ZM182.96 82C183.511 82 183.949 81.8861 184.272 81.6582C184.601 81.4258 184.835 81.1068 184.977 80.7012C185.122 80.291 185.195 79.8193 185.195 79.2861C185.195 78.9854 185.175 78.6663 185.134 78.3291C185.093 77.9873 185.038 77.6478 184.97 77.3105L183.979 77.5635C184.038 77.887 184.09 78.2129 184.136 78.541C184.186 78.8691 184.211 79.1745 184.211 79.457C184.211 79.9036 184.122 80.266 183.944 80.5439C183.767 80.8219 183.434 80.9609 182.946 80.9609H181.846V82H182.96ZM195.087 80.9336C195.087 80.4824 195.039 80.0358 194.943 79.5938C194.852 79.1517 194.709 78.7507 194.513 78.3906C194.317 78.0306 194.062 77.7435 193.747 77.5293C193.437 77.3151 193.063 77.208 192.626 77.208C192.275 77.208 191.961 77.29 191.683 77.4541C191.409 77.6182 191.179 77.8369 190.992 78.1104C190.805 78.3792 190.664 78.68 190.568 79.0127C190.473 79.3408 190.425 79.6712 190.425 80.0039C190.425 80.6966 190.63 81.207 191.04 81.5352C191.45 81.8633 192.043 82.0273 192.817 82.0273C193.018 82.0273 193.237 82.0068 193.474 81.9658C193.715 81.9202 193.929 81.8678 194.116 81.8086C194.043 82.319 193.861 82.7656 193.569 83.1484C193.278 83.5358 192.879 83.8594 192.373 84.1191C191.872 84.3835 191.259 84.5931 190.534 84.748L190.876 85.6436C191.797 85.4613 192.569 85.1673 193.193 84.7617C193.818 84.3607 194.289 83.8411 194.608 83.2031C194.927 82.5697 195.087 81.8132 195.087 80.9336ZM192.852 80.9951C192.373 80.9951 192.006 80.9176 191.751 80.7627C191.5 80.6032 191.375 80.3366 191.375 79.9629C191.375 79.7259 191.411 79.4753 191.484 79.2109C191.562 78.9421 191.689 78.7119 191.867 78.5205C192.049 78.3291 192.3 78.2334 192.619 78.2334C192.879 78.2334 193.1 78.2972 193.282 78.4248C193.465 78.5524 193.615 78.7347 193.733 78.9717C193.856 79.2041 193.95 79.4753 194.014 79.7852C194.082 80.0951 194.125 80.4323 194.144 80.7969C193.934 80.8607 193.717 80.9108 193.494 80.9473C193.275 80.9792 193.061 80.9951 192.852 80.9951ZM204.309 79.751C204.309 80.1657 204.181 80.471 203.926 80.667C203.675 80.863 203.295 80.9609 202.784 80.9609C202.278 80.9609 201.9 80.8607 201.649 80.6602C201.399 80.4596 201.273 80.1999 201.273 79.8809C201.273 79.6257 201.335 79.3773 201.458 79.1357C201.586 78.8942 201.757 78.6527 201.971 78.4111C202.189 78.1696 202.433 77.9212 202.702 77.666C202.953 77.8757 203.201 78.099 203.447 78.3359C203.693 78.5729 203.898 78.8122 204.062 79.0537C204.227 79.2907 204.309 79.5231 204.309 79.751ZM201.991 77.0303C201.444 77.5635 201.027 78.0648 200.74 78.5342C200.453 78.999 200.31 79.4844 200.31 79.9902C200.31 80.5827 200.533 81.0612 200.979 81.4258C201.426 81.7904 202.03 81.9727 202.791 81.9727C203.283 81.9727 203.716 81.8861 204.09 81.7129C204.464 81.5397 204.753 81.2913 204.958 80.9678C205.168 80.6442 205.272 80.2568 205.272 79.8057C205.272 79.4821 205.197 79.1676 205.047 78.8623C204.901 78.5524 204.694 78.2471 204.425 77.9463C204.16 77.641 203.851 77.3311 203.495 77.0166C203.144 76.7021 202.761 76.3717 202.347 76.0254L201.745 76.8047L201.991 77.0303ZM205.245 85.6572C206.065 85.4886 206.742 85.1855 207.275 84.748C207.813 84.3151 208.212 83.7865 208.472 83.1621C208.736 82.5378 208.868 81.8542 208.868 81.1113C208.868 80.6966 208.827 80.2705 208.745 79.833C208.668 79.3955 208.554 78.9535 208.403 78.5068L207.46 78.8213C207.606 79.2542 207.717 79.6781 207.795 80.0928C207.872 80.5029 207.911 80.8971 207.911 81.2754C207.911 81.8451 207.809 82.3623 207.604 82.8271C207.398 83.292 207.077 83.6885 206.64 84.0166C206.202 84.3447 205.628 84.5931 204.917 84.7617L205.245 85.6572ZM210.693 72.6895V79.2246C210.693 80.1725 210.889 80.8721 211.281 81.3232C211.673 81.7744 212.286 82 213.12 82H213.353V80.9609H213.12C212.623 80.9609 212.254 80.8379 212.013 80.5918C211.771 80.3411 211.65 79.8854 211.65 79.2246V72.6895H210.693ZM217.775 83.1758L216.914 84.0371L217.775 84.8984L218.637 84.0371L217.775 83.1758ZM213.086 80.9609V82H214.228C214.838 82 215.396 81.9453 215.902 81.8359C216.413 81.7266 216.921 81.5648 217.427 81.3506C217.937 81.1364 218.495 80.8743 219.102 80.5645C219.557 80.332 219.956 80.1383 220.298 79.9834C220.64 79.8285 220.94 79.7077 221.2 79.6211C221.46 79.5345 221.692 79.473 221.897 79.4365V78.4385C221.542 78.4157 221.166 78.3428 220.77 78.2197C220.378 78.0967 219.983 77.9486 219.587 77.7754C219.19 77.6022 218.808 77.4336 218.438 77.2695C218.069 77.1009 217.73 76.9619 217.42 76.8525C217.115 76.7386 216.855 76.6816 216.641 76.6816C216.139 76.6816 215.702 76.8161 215.328 77.085C214.954 77.3538 214.619 77.7161 214.323 78.1719L214.234 78.3154L215.103 78.7393L215.253 78.5479C215.435 78.32 215.636 78.124 215.854 77.96C216.073 77.7913 216.333 77.707 216.634 77.707C216.752 77.707 216.937 77.7526 217.188 77.8438C217.438 77.9303 217.728 78.042 218.056 78.1787C218.388 78.3109 218.739 78.4521 219.108 78.6025C219.478 78.7484 219.84 78.8805 220.195 78.999C219.617 79.2497 219.083 79.4935 218.596 79.7305C218.113 79.9674 217.646 80.1771 217.194 80.3594C216.743 80.5417 216.278 80.6875 215.8 80.7969C215.326 80.9062 214.809 80.9609 214.248 80.9609H213.086ZM224.611 72.6895H223.654V81.9932H224.611V72.6895ZM236.526 82H236.813V80.9609H236.547C236.146 80.9609 235.838 80.8538 235.624 80.6396C235.414 80.4255 235.28 80.1042 235.221 79.6758L234.64 75.5811L233.73 75.7656L233.771 76.0664C233.211 76.2396 232.71 76.431 232.268 76.6406C231.83 76.8503 231.456 77.0804 231.146 77.3311C230.837 77.5817 230.6 77.8574 230.436 78.1582C230.276 78.459 230.196 78.7894 230.196 79.1494C230.196 79.7464 230.408 80.2135 230.832 80.5508C231.256 80.888 231.782 81.0566 232.411 81.0566C232.812 81.0566 233.177 80.9769 233.505 80.8174C233.838 80.6533 234.125 80.4232 234.366 80.127C234.435 80.5098 234.553 80.8424 234.722 81.125C234.895 81.403 235.127 81.6195 235.419 81.7744C235.715 81.9248 236.084 82 236.526 82ZM234.127 78.6641C234.127 78.9557 234.045 79.2109 233.881 79.4297C233.721 79.6439 233.512 79.8102 233.252 79.9287C232.992 80.0426 232.716 80.0996 232.425 80.0996C232.051 80.0996 231.75 80.0153 231.522 79.8467C231.295 79.6735 231.181 79.4183 231.181 79.0811C231.181 78.8577 231.244 78.6527 231.372 78.4658C231.5 78.2744 231.682 78.0967 231.919 77.9326C232.16 77.764 232.448 77.6022 232.78 77.4473C233.118 77.2878 233.493 77.1351 233.908 76.9893L234.1 78.2471C234.109 78.32 234.116 78.3906 234.12 78.459C234.125 78.5228 234.127 78.5911 234.127 78.6641ZM237.661 82C238.213 82 238.65 81.8861 238.974 81.6582C239.302 81.4258 239.536 81.1068 239.678 80.7012C239.824 80.291 239.896 79.8193 239.896 79.2861C239.896 78.9854 239.876 78.6663 239.835 78.3291C239.794 77.9873 239.739 77.6478 239.671 77.3105L238.68 77.5635C238.739 77.887 238.791 78.2129 238.837 78.541C238.887 78.8691 238.912 79.1745 238.912 79.457C238.912 79.9036 238.823 80.266 238.646 80.5439C238.468 80.8219 238.135 80.9609 237.647 80.9609H236.547V82H237.661ZM238.495 74.2344L237.634 75.0957L238.495 75.957L239.356 75.0957L238.495 74.2344ZM241.729 72.6895V79.2246C241.729 80.1725 241.924 80.8721 242.316 81.3232C242.708 81.7744 243.321 82 244.155 82H244.388V80.9609H244.155C243.659 80.9609 243.289 80.8379 243.048 80.5918C242.806 80.3411 242.686 79.8854 242.686 79.2246V72.6895H241.729ZM248.564 78.3086C249.02 78.3086 249.371 78.4727 249.617 78.8008C249.868 79.1243 249.993 79.5345 249.993 80.0312C249.993 80.3913 249.897 80.6693 249.706 80.8652C249.519 81.0566 249.243 81.1523 248.879 81.1523C248.729 81.1523 248.562 81.1204 248.38 81.0566C248.202 80.9928 248.018 80.8971 247.826 80.7695C247.676 80.6738 247.523 80.5622 247.368 80.4346C247.218 80.307 247.065 80.1611 246.91 79.9971C247.033 79.7373 247.172 79.4775 247.327 79.2178C247.487 78.958 247.667 78.7415 247.867 78.5684C248.072 78.3952 248.305 78.3086 248.564 78.3086ZM248.893 82.1572C249.33 82.1572 249.701 82.0706 250.007 81.8975C250.312 81.7197 250.545 81.4645 250.704 81.1318C250.868 80.7946 250.95 80.3913 250.95 79.9219C250.95 79.4342 250.85 78.9922 250.649 78.5957C250.453 78.1992 250.175 77.8848 249.815 77.6523C249.46 77.4199 249.041 77.3037 248.558 77.3037C248.147 77.3037 247.801 77.3926 247.519 77.5703C247.241 77.7435 247.004 77.9691 246.808 78.2471C246.612 78.5251 246.434 78.8213 246.274 79.1357C246.115 79.4456 245.951 79.7396 245.782 80.0176C245.618 80.2956 245.429 80.5234 245.215 80.7012C245.001 80.8743 244.739 80.9609 244.429 80.9609H244.121V82H244.456C244.78 82 245.053 81.9544 245.276 81.8633C245.5 81.7721 245.7 81.6445 245.878 81.4805C246.056 81.3164 246.236 81.1227 246.418 80.8994C246.678 81.1455 246.935 81.3643 247.19 81.5557C247.446 81.7471 247.71 81.8952 247.983 82C248.261 82.1048 248.564 82.1572 248.893 82.1572ZM252.775 72.6895V79.2246C252.775 80.1725 252.971 80.8721 253.363 81.3232C253.755 81.7744 254.368 82 255.202 82H255.435V80.9609H255.202C254.705 80.9609 254.336 80.8379 254.095 80.5918C253.853 80.3411 253.732 79.8854 253.732 79.2246V72.6895H252.775ZM255.168 80.9609V82H259.304V80.9609H255.168ZM259.037 80.9609V82H263.173V80.9609H259.037ZM262.906 80.9609V82H267.042V80.9609H262.906ZM266.775 80.9609V82H270.911V80.9609H266.775ZM270.645 80.9609V82H274.78V80.9609H270.645ZM274.514 80.9609V82H278.649V80.9609H274.514ZM278.383 80.9609V82H282.519V80.9609H278.383ZM282.252 80.9609V82H286.388V80.9609H282.252ZM286.121 80.9609V82H290.257V80.9609H286.121ZM289.99 80.9609V82H294.126V80.9609H289.99ZM293.859 80.9609V82H297.995V80.9609H293.859ZM297.729 80.9609V82H301.864V80.9609H297.729ZM301.598 80.9609V82H305.733V80.9609H301.598ZM305.467 80.9609V82H309.603V80.9609H305.467ZM309.336 80.9609V82H313.472V80.9609H309.336ZM317.97 82C318.384 82 318.744 81.9089 319.05 81.7266C319.355 81.5397 319.619 81.2617 319.843 80.8926C319.984 81.2253 320.187 81.4941 320.451 81.6992C320.72 81.8997 321.087 82 321.552 82C322.062 81.9954 322.468 81.8678 322.769 81.6172C323.069 81.362 323.286 81.0293 323.418 80.6191C323.55 80.209 323.616 79.7692 323.616 79.2998C323.616 78.9717 323.591 78.6436 323.541 78.3154C323.495 77.9873 323.434 77.6751 323.356 77.3789L322.386 77.6455C322.422 77.7868 322.459 77.9577 322.495 78.1582C322.536 78.3587 322.57 78.5684 322.598 78.7871C322.625 79.0059 322.639 79.2223 322.639 79.4365C322.639 79.7054 322.604 79.9561 322.536 80.1885C322.468 80.4209 322.354 80.6077 322.194 80.749C322.035 80.8903 321.818 80.9609 321.545 80.9609C321.126 80.9609 320.82 80.8219 320.629 80.5439C320.442 80.266 320.335 79.931 320.308 79.5391L320.205 78.2197L319.269 78.3359C319.282 78.5 319.294 78.6436 319.303 78.7666C319.312 78.8896 319.319 78.999 319.323 79.0947C319.328 79.1859 319.33 79.2702 319.33 79.3477C319.33 79.8626 319.234 80.2614 319.043 80.5439C318.852 80.8219 318.498 80.9609 317.983 80.9609C317.546 80.9609 317.215 80.8265 316.992 80.5576C316.769 80.2842 316.641 79.9447 316.609 79.5391L316.507 78.2197L315.57 78.3359C315.589 78.5 315.6 78.6436 315.604 78.7666C315.614 78.8896 315.62 78.999 315.625 79.0947C315.63 79.1859 315.632 79.2702 315.632 79.3477C315.632 79.7487 315.566 80.0677 315.434 80.3047C315.306 80.5371 315.11 80.7057 314.846 80.8105C314.586 80.9108 314.253 80.9609 313.848 80.9609H313.205V82H313.834C314.463 82 314.944 81.9066 315.276 81.7197C315.614 81.5329 315.885 81.2526 316.09 80.8789C316.245 81.2298 316.464 81.5055 316.746 81.7061C317.029 81.902 317.437 82 317.97 82Z" fill="#D25E17"/>
</svg>
