<svg width="155" height="38" viewBox="0 0 155 38" fill="none" xmlns="http://www.w3.org/2000/svg">
<path d="M1.9293 8.72372V16.6302C1.9293 17.9201 2.21565 18.8876 2.78833 19.5325C3.36658 20.1775 4.27844 20.5 5.5239 20.5H5.72406V18.0897H5.5239C4.97901 18.0897 4.62317 17.9618 4.45636 17.7061C4.29512 17.4503 4.2145 17.0249 4.2145 16.43V8.72372H1.9293ZM5.41548 20.5H6.9584C7.09741 21.1061 7.35317 21.701 7.7257 22.2848C8.10378 22.8742 8.54859 23.4051 9.06012 23.8778C9.57165 24.3559 10.0999 24.7257 10.6447 24.987L12.1043 23.6276C12.0931 23.4719 12.0848 23.319 12.0792 23.1688C12.0737 23.0187 12.0709 22.8714 12.0709 22.7268C12.0709 22.3543 12.1015 22.029 12.1627 21.751C12.2238 21.473 12.3239 21.2395 12.4629 21.0504C12.6075 20.867 12.7993 20.728 13.0384 20.6334C13.283 20.5445 13.586 20.5 13.9474 20.5H14.231V18.0897H13.9641C13.5582 18.0897 13.1523 18.2009 12.7465 18.4233C12.3406 18.6401 11.9625 18.9348 11.6122 19.3074C11.2619 19.6743 10.9589 20.0858 10.7031 20.5417C10.4474 20.9976 10.2583 21.4647 10.136 21.9428C9.98587 21.815 9.84131 21.6648 9.70231 21.4925C9.56887 21.3201 9.44933 21.145 9.34368 20.967C9.23804 20.7891 9.1602 20.6195 9.11016 20.4583C9.57721 20.3082 10.022 20.0747 10.4446 19.7577C10.8727 19.4352 11.2536 19.0544 11.5872 18.6151C11.9208 18.1759 12.1849 17.7061 12.3795 17.2056C12.5741 16.7052 12.6714 16.1965 12.6714 15.6794C12.6714 15.1234 12.5685 14.6258 12.3628 14.1865C12.1627 13.7473 11.8707 13.3998 11.4871 13.144C11.109 12.8827 10.6503 12.752 10.111 12.752C9.49381 12.752 8.97116 12.916 8.54303 13.2441C8.12046 13.5721 7.77852 14.0003 7.51719 14.5285C7.26143 15.0511 7.07517 15.6099 6.9584 16.2048C6.8472 16.7998 6.7916 17.3641 6.7916 17.8979V18.0897H5.41548V20.5ZM10.0192 15.0789C10.2416 15.0789 10.4196 15.1484 10.553 15.2874C10.6864 15.4264 10.7532 15.6155 10.7532 15.8545C10.7532 16.2326 10.667 16.5885 10.4946 16.9221C10.3223 17.2501 10.0915 17.5198 9.80239 17.7311C9.51883 17.9424 9.20746 18.0619 8.8683 18.0897V17.8979C8.8683 17.631 8.88776 17.3363 8.92668 17.0138C8.97116 16.6858 9.03788 16.3772 9.12684 16.0881C9.22136 15.7934 9.3409 15.5515 9.48547 15.3625C9.63003 15.1734 9.80795 15.0789 10.0192 15.0789ZM13.8974 18.0897V20.5H14.2977V18.0897H13.8974ZM15.6155 21.4841L14.1226 22.9854L15.6155 24.4782L17.1167 22.9854L15.6155 21.4841ZM15.0066 20.5C15.9018 20.5 16.6135 20.336 17.1417 20.0079C17.6699 19.6743 18.0508 19.2101 18.2843 18.6151C18.5178 18.0146 18.6346 17.3113 18.6346 16.5051C18.6346 16.0102 18.5985 15.4987 18.5262 14.9705C18.4539 14.4423 18.3455 13.8918 18.2009 13.3191L16.0408 13.903C16.2076 14.5424 16.3244 15.1095 16.3911 15.6043C16.4578 16.0936 16.4912 16.494 16.4912 16.8053C16.4912 17.3224 16.3633 17.6671 16.1075 17.8395C15.8518 18.0063 15.4792 18.0897 14.99 18.0897H14.0809V20.5H15.0066ZM29.1432 17.214C29.1432 17.5142 29.0236 17.7366 28.7845 17.8812C28.5455 18.0202 28.2007 18.0897 27.7504 18.0897C27.3278 18.0897 26.9914 18.0202 26.7412 17.8812C26.4966 17.7366 26.3742 17.5365 26.3742 17.2807C26.3742 17.0917 26.441 16.8859 26.5744 16.6635C26.7079 16.4411 26.8719 16.2215 27.0665 16.0047C27.2666 15.7823 27.464 15.5849 27.6586 15.4125C27.8755 15.5738 28.0979 15.76 28.3258 15.9713C28.5538 16.1826 28.7456 16.3994 28.9013 16.6218C29.0626 16.8387 29.1432 17.0361 29.1432 17.214ZM26.0073 13.9864C25.5124 14.5479 25.0926 15.0984 24.7479 15.6377C24.4088 16.177 24.2392 16.797 24.2392 17.4975C24.2392 18.3482 24.5366 19.0572 25.1316 19.6243C25.7321 20.1859 26.6078 20.4666 27.7587 20.4666C28.437 20.4666 29.0403 20.336 29.5685 20.0747C30.1023 19.8133 30.5193 19.4408 30.8195 18.9571C31.1198 18.4678 31.2699 17.8812 31.2699 17.1973C31.2699 16.6635 31.1448 16.1603 30.8946 15.6877C30.65 15.2096 30.3219 14.7564 29.9105 14.3283C29.5046 13.9002 29.0542 13.4887 28.5594 13.094C28.0701 12.6936 27.5752 12.2961 27.0748 11.9013L25.6737 13.6944L26.0073 13.9864ZM30.953 25.0537C32.0038 24.8424 32.9185 24.4755 33.6969 23.9528C34.4809 23.4357 35.0869 22.7574 35.515 21.9178C35.9487 21.0838 36.1656 20.083 36.1656 18.9154C36.1656 18.2704 36.1072 17.6004 35.9904 16.9054C35.8792 16.2048 35.7152 15.5487 35.4984 14.9371L33.2465 15.6627C33.43 16.2076 33.6024 16.797 33.7636 17.4308C33.9249 18.0647 34.0055 18.6318 34.0055 19.1322C34.0055 19.8884 33.847 20.5056 33.5301 20.9837C33.2187 21.4675 32.7711 21.8511 32.1873 22.1347C31.6035 22.4182 30.9085 22.6462 30.1023 22.8186L30.953 25.0537ZM37.942 8.72372V16.6302C37.942 17.9201 38.2284 18.8876 38.8011 19.5325C39.3793 20.1775 40.2912 20.5 41.5366 20.5H41.7368V18.0897H41.5366C40.9917 18.0897 40.6359 17.9618 40.4691 17.7061C40.3078 17.4503 40.2272 17.0249 40.2272 16.43V8.72372H37.942ZM47.1329 21.4841L45.64 22.9854L47.1329 24.4782L48.6341 22.9854L47.1329 21.4841ZM41.4282 18.0897V20.5H42.8043C43.6272 20.5 44.3778 20.4194 45.0562 20.2581C45.7345 20.0969 46.3961 19.8745 47.0411 19.5909C47.6916 19.3018 48.3728 18.9682 49.0844 18.5901C49.6015 18.3177 50.0602 18.0814 50.4606 17.8812C50.8665 17.6755 51.2557 17.5087 51.6282 17.3808C52.0007 17.2473 52.3983 17.1528 52.8208 17.0972V14.8954C52.4817 14.8732 52.1703 14.8398 51.8867 14.7953C51.6087 14.7509 51.3252 14.6814 51.036 14.5868C50.7469 14.4923 50.4189 14.3672 50.0519 14.2115C49.6905 14.0503 49.2568 13.8446 48.7508 13.5944C48.2949 13.372 47.839 13.169 47.3831 12.9855C46.9327 12.8021 46.4434 12.7103 45.9152 12.7103C45.1757 12.7103 44.5113 12.9244 43.9219 13.3525C43.3381 13.7806 42.8516 14.3144 42.4624 14.9538L42.0871 15.5626L43.9553 16.4717L44.3973 15.9129C44.553 15.7128 44.767 15.5182 45.0395 15.3291C45.3175 15.1401 45.6066 15.0455 45.9069 15.0455C45.9513 15.0455 46.0153 15.0567 46.0987 15.0789C46.1876 15.0956 46.2877 15.1234 46.3989 15.1623C46.5157 15.2012 46.6491 15.2457 46.7992 15.2958C46.9716 15.3569 47.1885 15.4403 47.4498 15.546C47.7167 15.646 47.9891 15.7517 48.2671 15.8629C48.5451 15.9741 48.787 16.0714 48.9927 16.1548C48.1976 16.5607 47.4692 16.9082 46.8076 17.1973C46.1459 17.4864 45.4954 17.7088 44.856 17.8645C44.2221 18.0146 43.5466 18.0897 42.8293 18.0897H41.4282ZM56.8158 8.72372H54.5306V20.4917H56.8158V8.72372ZM71.1942 20.5H71.4777V18.0897H71.2275C70.8272 18.0897 70.5186 17.9535 70.3018 17.681C70.0905 17.4086 69.9626 17.1195 69.9181 16.8137L69.1258 11.4593L67.1075 11.868L67.1659 12.2683C66.621 12.4351 66.0928 12.6352 65.5812 12.8688C65.0753 13.1023 64.6166 13.3831 64.2051 13.7111C63.7937 14.0336 63.4656 14.4061 63.221 14.8287C62.9819 15.2513 62.8624 15.7322 62.8624 16.2715C62.8624 17.2501 63.1682 17.9924 63.7798 18.4984C64.3969 19.0043 65.1698 19.2573 66.0983 19.2573C66.482 19.2573 66.8434 19.1962 67.1825 19.0738C67.5217 18.9515 67.8581 18.7625 68.1917 18.5067C68.3363 18.9571 68.5448 19.3296 68.8172 19.6243C69.0897 19.919 69.4233 20.1386 69.818 20.2832C70.2184 20.4277 70.6771 20.5 71.1942 20.5ZM67.733 15.9379C67.733 16.1659 67.6468 16.3577 67.4745 16.5134C67.3021 16.6691 67.088 16.7859 66.8323 16.8637C66.5765 16.936 66.318 16.9721 66.0566 16.9721C65.7619 16.9721 65.5201 16.9026 65.331 16.7636C65.142 16.6246 65.0475 16.4384 65.0475 16.2048C65.0475 16.0269 65.1198 15.8573 65.2643 15.6961C65.4144 15.5348 65.6063 15.3819 65.8398 15.2374C66.0789 15.0872 66.343 14.9538 66.6321 14.837C66.9268 14.7147 67.2242 14.6007 67.5245 14.4951L67.6663 15.3708C67.6885 15.4765 67.7052 15.5765 67.7163 15.6711C67.7274 15.7656 67.733 15.8545 67.733 15.9379ZM72.0866 20.5C72.9817 20.5 73.6934 20.336 74.2216 20.0079C74.7498 19.6743 75.1307 19.2101 75.3642 18.6151C75.5978 18.0146 75.7145 17.3113 75.7145 16.5051C75.7145 16.0102 75.6784 15.4987 75.6061 14.9705C75.5338 14.4423 75.4254 13.8918 75.2808 13.3191L73.1207 13.903C73.2875 14.5424 73.4043 15.1095 73.471 15.6043C73.5377 16.0936 73.5711 16.494 73.5711 16.8053C73.5711 17.3224 73.4432 17.6671 73.1875 17.8395C72.9317 18.0063 72.5592 18.0897 72.0699 18.0897H71.1608V20.5H72.0866ZM73.4627 9.466L71.9698 10.9672L73.4627 12.4601L74.9639 10.9672L73.4627 9.466ZM77.5243 8.72372V16.6302C77.5243 17.9201 77.8107 18.8876 78.3834 19.5325C78.9616 20.1775 79.8735 20.5 81.1189 20.5H81.3191V18.0897H81.1189C80.574 18.0897 80.2182 17.9618 80.0514 17.7061C79.8901 17.4503 79.8095 17.0249 79.8095 16.43V8.72372H77.5243ZM86.4566 15.9713C86.8403 15.9713 87.1405 16.0992 87.3573 16.355C87.5797 16.6107 87.691 16.9165 87.691 17.2724C87.691 17.5504 87.627 17.795 87.4991 18.0063C87.3768 18.2176 87.1655 18.3232 86.8653 18.3232C86.7374 18.3232 86.5901 18.301 86.4232 18.2565C86.262 18.212 86.0813 18.1314 85.8811 18.0146C85.7533 17.9424 85.6143 17.8534 85.4641 17.7478C85.3196 17.6421 85.1667 17.517 85.0054 17.3724C85.0999 17.1723 85.2139 16.9666 85.3474 16.7553C85.4864 16.5384 85.6476 16.355 85.8311 16.2048C86.0146 16.0491 86.2231 15.9713 86.4566 15.9713ZM86.8569 20.6918C87.513 20.6918 88.0579 20.5417 88.4916 20.2415C88.9309 19.9412 89.2589 19.5325 89.4757 19.0155C89.6926 18.4984 89.801 17.9118 89.801 17.2557C89.801 16.6163 89.662 16.0269 89.384 15.4876C89.106 14.9427 88.7112 14.5062 88.1997 14.1782C87.6882 13.8446 87.0821 13.6778 86.3815 13.6778C85.8811 13.6778 85.4419 13.7834 85.0638 13.9947C84.6913 14.206 84.366 14.4812 84.088 14.8204C83.81 15.154 83.557 15.507 83.3291 15.8796C83.1067 16.2521 82.8926 16.6079 82.6869 16.9471C82.4811 17.2807 82.2699 17.5559 82.053 17.7728C81.8362 17.9841 81.5915 18.0897 81.3191 18.0897H81.0105V20.5H81.3608C81.7834 20.5 82.1336 20.45 82.4116 20.3499C82.6952 20.2498 82.9399 20.1191 83.1456 19.9579C83.3569 19.7911 83.5626 19.6048 83.7627 19.3991C84.0852 19.6437 84.4105 19.8634 84.7385 20.058C85.0666 20.2526 85.4058 20.4055 85.756 20.5167C86.1063 20.6334 86.4733 20.6918 86.8569 20.6918ZM91.6025 8.72372V16.6302C91.6025 17.9201 91.8888 18.8876 92.4615 19.5325C93.0398 20.1775 93.9516 20.5 95.1971 20.5H95.3972V18.0897H95.1971C94.6522 18.0897 94.2963 17.9618 94.1295 17.7061C93.9683 17.4503 93.8877 17.0249 93.8877 16.43V8.72372H91.6025ZM100.802 20.5C101.291 20.5 101.736 20.3971 102.136 20.1914C102.536 19.9857 102.878 19.7327 103.162 19.4325C103.395 19.7327 103.687 19.9857 104.038 20.1914C104.393 20.3971 104.824 20.5 105.33 20.5C106.081 20.4944 106.673 20.3082 107.107 19.9412C107.54 19.5742 107.849 19.0877 108.033 18.4817C108.222 17.8701 108.316 17.2029 108.316 16.4801C108.316 15.9685 108.277 15.4542 108.199 14.9371C108.127 14.42 108.024 13.9085 107.891 13.4025L105.722 13.9613C105.828 14.3839 105.931 14.8509 106.031 15.3625C106.137 15.874 106.189 16.3244 106.189 16.7136C106.189 16.9582 106.162 17.1862 106.106 17.3975C106.056 17.6032 105.964 17.77 105.831 17.8979C105.703 18.0258 105.525 18.0897 105.297 18.0897C105.069 18.0897 104.88 18.0313 104.73 17.9146C104.58 17.7978 104.469 17.6421 104.396 17.4475C104.324 17.2473 104.279 17.0361 104.263 16.8137L104.088 14.6035L101.994 14.8621C102.011 15.0622 102.028 15.2846 102.044 15.5293C102.067 15.7684 102.08 15.988 102.086 16.1881C102.097 16.3828 102.103 16.519 102.103 16.5968C102.103 17.0861 102.003 17.4586 101.802 17.7144C101.608 17.9646 101.28 18.0897 100.818 18.0897C100.563 18.0897 100.349 18.0369 100.176 17.9312C100.009 17.82 99.8787 17.6671 99.7842 17.4725C99.6952 17.2779 99.6424 17.0583 99.6257 16.8137L99.4505 14.6035L97.3572 14.8621C97.3739 15.0622 97.3905 15.2819 97.4072 15.5209C97.4239 15.76 97.4378 15.9796 97.4489 16.1798C97.46 16.3744 97.4656 16.5134 97.4656 16.5968C97.4656 17.1751 97.321 17.5698 97.0319 17.7811C96.7483 17.9868 96.3008 18.0897 95.6891 18.0897H95.0887V20.5H95.6725C96.323 20.5 96.8707 20.4055 97.3155 20.2164C97.7658 20.0274 98.1439 19.7716 98.4497 19.4491C98.6944 19.7661 99.0057 20.0218 99.3838 20.2164C99.7619 20.4055 100.235 20.5 100.802 20.5Z" fill="#1C1917"/>
<line x1="117.594" y1="2.71533" x2="117.594" y2="29.2852" stroke="#9C6946" stroke-width="2"/>
<path opacity="0.4" d="M149.533 9.44614L142.245 4.34726C140.259 2.95551 137.209 3.03142 135.299 4.51174L128.96 9.45879C127.695 10.4457 126.695 12.47 126.695 14.0642V22.7943C126.695 26.0206 129.314 28.6523 132.541 28.6523H146.18C149.406 28.6523 152.025 26.0333 152.025 22.807V14.2287C152.025 12.5206 150.924 10.4204 149.533 9.44614Z" fill="#9C6946"/>
<path d="M139.363 24.5402C138.844 24.5402 138.414 24.11 138.414 23.5913V19.7956C138.414 19.2769 138.844 18.8467 139.363 18.8467C139.882 18.8467 140.312 19.2769 140.312 19.7956V23.5913C140.312 24.11 139.882 24.5402 139.363 24.5402Z" fill="#9C6946"/>
<rect width="154.548" height="2" transform="translate(0 35.1831)" fill="#9C6946"/>
</svg>
