<svg width="200" height="200" viewBox="0 0 200 200" fill="none" xmlns="http://www.w3.org/2000/svg">
<g opacity="0.4">
<path opacity="0.4" d="M183.333 52.0837V94.5835C183.333 105.167 179.833 114.084 173.583 120.25C167.417 126.5 158.5 130 147.916 130V145.083C147.916 150.75 141.583 154.167 136.916 151L128.833 145.667C129.583 143.083 129.916 140.25 129.916 137.25V103.334C129.916 86.3339 118.583 75.0003 101.583 75.0003H44.9998C43.8331 75.0003 42.7498 75.0838 41.6665 75.1672V52.0837C41.6665 30.8337 55.8332 16.667 77.0832 16.667H147.916C169.166 16.667 183.333 30.8337 183.333 52.0837Z" fill="#FF731D"/>
<path d="M129.916 103.334V137.25C129.916 140.25 129.583 143.083 128.833 145.667C125.75 157.917 115.583 165.583 101.583 165.583H78.9165L53.7498 182.333C49.9998 184.917 44.9998 182.167 44.9998 177.667V165.583C36.4998 165.583 29.4165 162.75 24.4999 157.833C19.4999 152.833 16.6665 145.75 16.6665 137.25V103.334C16.6665 87.5002 26.4998 76.5835 41.6665 75.1668C42.7498 75.0835 43.8331 75 44.9998 75H101.583C118.583 75 129.916 86.3335 129.916 103.334Z" fill="#FF731D"/>
</g>
</svg>
