<svg width="32" height="32" viewBox="0 0 32 32" fill="none" xmlns="http://www.w3.org/2000/svg">
<path opacity="0.4" d="M26.6663 11.0003V24.0003C26.6663 28.0003 24.2797 29.3337 21.333 29.3337H10.6663C7.71967 29.3337 5.33301 28.0003 5.33301 24.0003V11.0003C5.33301 6.66699 7.71967 5.66699 10.6663 5.66699C10.6663 6.49366 10.9996 7.24032 11.5463 7.78699C12.093 8.33365 12.8397 8.66699 13.6663 8.66699H18.333C19.9863 8.66699 21.333 7.32033 21.333 5.66699C24.2797 5.66699 26.6663 6.66699 26.6663 11.0003Z" fill="#FF731D"/>
<path d="M21.3337 5.66699C21.3337 7.32033 19.987 8.66699 18.3337 8.66699H13.667C12.8403 8.66699 12.0936 8.33365 11.547 7.78699C11.0003 7.24032 10.667 6.49366 10.667 5.66699C10.667 4.01366 12.0137 2.66699 13.667 2.66699H18.3337C19.1603 2.66699 19.907 3.00033 20.4537 3.547C21.0004 4.09366 21.3337 4.84033 21.3337 5.66699Z" fill="#FF731D"/>
<path d="M16.0003 18.333H10.667C10.1203 18.333 9.66699 17.8797 9.66699 17.333C9.66699 16.7863 10.1203 16.333 10.667 16.333H16.0003C16.547 16.333 17.0003 16.7863 17.0003 17.333C17.0003 17.8797 16.547 18.333 16.0003 18.333Z" fill="#FF731D"/>
<path d="M21.3337 23.667H10.667C10.1203 23.667 9.66699 23.2137 9.66699 22.667C9.66699 22.1203 10.1203 21.667 10.667 21.667H21.3337C21.8803 21.667 22.3337 22.1203 22.3337 22.667C22.3337 23.2137 21.8803 23.667 21.3337 23.667Z" fill="#FF731D"/>
</svg>
