<svg width="32" height="32" viewBox="0 0 32 32" fill="none" xmlns="http://www.w3.org/2000/svg">
<path opacity="0.4" d="M27.3335 13.5865H23.4802C20.3202 13.5865 17.7468 11.0132 17.7468 7.85317V3.99984C17.7468 3.2665 17.1468 2.6665 16.4135 2.6665H10.7602C6.6535 2.6665 3.3335 5.33317 3.3335 10.0932V21.9065C3.3335 26.6665 6.6535 29.3332 10.7602 29.3332H21.2402C25.3468 29.3332 28.6668 26.6665 28.6668 21.9065V14.9198C28.6668 14.1865 28.0668 13.5865 27.3335 13.5865Z" fill="#9C6946"/>
<path d="M21.0666 2.94682C20.5199 2.40015 19.5732 2.77349 19.5732 3.53349V8.18682C19.5732 10.1335 21.2266 11.7468 23.2399 11.7468C24.5066 11.7602 26.2666 11.7602 27.7732 11.7602C28.5332 11.7602 28.9332 10.8668 28.3999 10.3335C26.4799 8.40015 23.0399 4.92015 21.0666 2.94682Z" fill="#9C6946"/>
<path d="M18 18.3335H10C9.45333 18.3335 9 17.8802 9 17.3335C9 16.7868 9.45333 16.3335 10 16.3335H18C18.5467 16.3335 19 16.7868 19 17.3335C19 17.8802 18.5467 18.3335 18 18.3335Z" fill="#9C6946"/>
<path d="M15.3333 23.6665H10C9.45333 23.6665 9 23.2132 9 22.6665C9 22.1198 9.45333 21.6665 10 21.6665H15.3333C15.88 21.6665 16.3333 22.1198 16.3333 22.6665C16.3333 23.2132 15.88 23.6665 15.3333 23.6665Z" fill="#9C6946"/>
</svg>
