<svg width="48" height="48" viewBox="0 0 32 32" fill="none" xmlns="http://www.w3.org/2000/svg">
<path opacity="0.4" d="M27.8801 14.8258C27.8801 21.3458 23.1468 27.4524 16.6801 29.2391C16.2401 29.3591 15.7601 29.3591 15.3201 29.2391C8.85344 27.4524 4.12012 21.3458 4.12012 14.8258V8.97244C4.12012 7.87911 4.9468 6.63911 5.97347 6.22578L13.4001 3.18578C15.0668 2.50578 16.9468 2.50578 18.6134 3.18578L26.0401 6.22578C27.0535 6.63911 27.8935 7.87911 27.8935 8.97244L27.8801 14.8258Z" fill="#44403C"/>
<path d="M19.3332 13.9993C19.3332 12.1593 17.8398 10.666 15.9998 10.666C14.1598 10.666 12.6665 12.1593 12.6665 13.9993C12.6665 15.4927 13.6532 16.7327 14.9998 17.1593V20.666C14.9998 21.2127 15.4532 21.666 15.9998 21.666C16.5465 21.666 16.9998 21.2127 16.9998 20.666V17.1593C18.3465 16.7327 19.3332 15.4927 19.3332 13.9993Z" fill="#44403C"/>
</svg>
