<svg width="24" height="25" viewBox="0 0 24 25" fill="none" xmlns="http://www.w3.org/2000/svg">
<path opacity="0.4" d="M9.51026 4.72965L18.0703 9.00965C21.9103 10.9296 21.9103 14.0696 18.0703 15.9896L9.51026 20.2696C3.75026 23.1496 1.40026 20.7896 4.28026 15.0396L5.15026 13.3096C5.40026 12.7996 5.40026 12.2096 5.15026 11.6996L4.28026 9.95965C1.40026 4.20965 3.76026 1.84965 9.51026 4.72965Z" fill="#1C1917"/>
<path d="M14.8404 13.25H9.44043C9.03043 13.25 8.69043 12.91 8.69043 12.5C8.69043 12.09 9.03043 11.75 9.44043 11.75H14.8404C15.2504 11.75 15.5904 12.09 15.5904 12.5C15.5904 12.91 15.2504 13.25 14.8404 13.25Z" fill="#1C1917"/>
</svg>
