<svg width="32" height="32" viewBox="0 0 32 32" fill="none" xmlns="http://www.w3.org/2000/svg">
<path opacity="0.4" d="M29.3332 10.4132V21.5865C29.3332 25.3332 27.6132 27.9065 24.5865 28.8798C23.7065 29.1865 22.6932 29.3332 21.5865 29.3332H10.4132C9.3065 29.3332 8.29317 29.1865 7.41317 28.8798C4.3865 27.9065 2.6665 25.3332 2.6665 21.5865V10.4132C2.6665 5.55983 5.55983 2.6665 10.4132 2.6665H21.5865C26.4398 2.6665 29.3332 5.55983 29.3332 10.4132Z" fill="#FF731D"/>
<path d="M24.5864 28.8798C23.7064 29.1865 22.6931 29.3332 21.5864 29.3332H10.4131C9.30642 29.3332 8.29309 29.1865 7.41309 28.8798C7.87975 25.3598 11.5598 22.6265 15.9998 22.6265C20.4398 22.6265 24.1198 25.3598 24.5864 28.8798Z" fill="#FF731D"/>
<path d="M20.7732 15.4399C20.7732 18.0799 18.6399 20.2265 15.9999 20.2265C13.3599 20.2265 11.2266 18.0799 11.2266 15.4399C11.2266 12.7999 13.3599 10.6665 15.9999 10.6665C18.6399 10.6665 20.7732 12.7999 20.7732 15.4399Z" fill="#FF731D"/>
</svg>
