<svg width="24" height="24" viewBox="0 0 24 24" fill="none" xmlns="http://www.w3.org/2000/svg">
<path opacity="0.4" d="M21.0763 8.58003V15.42C21.0763 16.54 20.4762 17.58 19.5063 18.15L13.5662 21.58C12.5962 22.14 11.3962 22.14 10.4163 21.58L4.47625 18.15C3.50625 17.59 2.90625 16.55 2.90625 15.42V8.58003C2.90625 7.46003 3.50625 6.41999 4.47625 5.84999L10.4163 2.42C11.3863 1.86 12.5863 1.86 13.5662 2.42L19.5063 5.84999C20.4762 6.41999 21.0763 7.45003 21.0763 8.58003Z" fill="#9C6946"/>
<path d="M11.9941 11.9998C13.2809 11.9998 14.3241 10.9566 14.3241 9.6698C14.3241 8.38298 13.2809 7.33984 11.9941 7.33984C10.7072 7.33984 9.66406 8.38298 9.66406 9.6698C9.66406 10.9566 10.7072 11.9998 11.9941 11.9998Z" fill="#9C6946"/>
<path d="M14.6772 16.6599C15.4872 16.6599 15.9572 15.7599 15.5072 15.0899C14.8272 14.0799 13.5072 13.3999 11.9972 13.3999C10.4872 13.3999 9.16723 14.0799 8.48723 15.0899C8.03723 15.7599 8.50723 16.6599 9.31723 16.6599H14.6772Z" fill="#9C6946"/>
</svg>
