<svg width="31" height="31" viewBox="0 0 31 31" fill="none" xmlns="http://www.w3.org/2000/svg">
<path d="M25.355 8.62875L18.0673 3.52988C16.0808 2.13812 13.0316 2.21404 11.1211 3.69436L4.78234 8.6414C3.51711 9.62828 2.51758 11.6527 2.51758 13.2468V21.9769C2.51758 25.2033 5.1366 27.8349 8.36294 27.8349H22.0021C25.2285 27.8349 27.8475 25.2159 27.8475 21.9896V13.4113C27.8475 11.7033 26.7467 9.60298 25.355 8.62875Z" fill="#FF731D"/>
<path d="M15.1828 23.7228C14.6641 23.7228 14.2339 23.2927 14.2339 22.7739V18.9782C14.2339 18.4595 14.6641 18.0293 15.1828 18.0293C15.7016 18.0293 16.1317 18.4595 16.1317 18.9782V22.7739C16.1317 23.2927 15.7016 23.7228 15.1828 23.7228Z" fill="white"/>
</svg>
