<svg width="32" height="32" viewBox="0 0 32 32" fill="none" xmlns="http://www.w3.org/2000/svg">
<path opacity="0.4" d="M27.8811 14.8267C27.8811 21.3467 23.1478 27.4534 16.6811 29.2401C16.2411 29.3601 15.7611 29.3601 15.3211 29.2401C8.85442 27.4534 4.12109 21.3467 4.12109 14.8267V8.97342C4.12109 7.88009 4.94778 6.64009 5.97445 6.22676L13.4011 3.18676C15.0677 2.50676 16.9478 2.50676 18.6144 3.18676L26.0411 6.22676C27.0544 6.64009 27.8944 7.88009 27.8944 8.97342L27.8811 14.8267Z" fill="#C2410C"/>
<path d="M19.3346 14.0003C19.3346 12.1603 17.8413 10.667 16.0013 10.667C14.1613 10.667 12.668 12.1603 12.668 14.0003C12.668 15.4937 13.6546 16.7337 15.0013 17.1603V20.667C15.0013 21.2137 15.4546 21.667 16.0013 21.667C16.548 21.667 17.0013 21.2137 17.0013 20.667V17.1603C18.348 16.7337 19.3346 15.4937 19.3346 14.0003Z" fill="#C2410C"/>
</svg>
