<svg width="32" height="32" viewBox="0 0 32 32" fill="none" xmlns="http://www.w3.org/2000/svg">
<path d="M16 25.0003C15.4533 25.0003 15 24.547 15 24.0003V22.667C15 22.1203 15.4533 21.667 16 21.667C16.5467 21.667 17 22.1203 17 22.667V24.0003C17 24.547 16.5467 25.0003 16 25.0003Z" fill="#C2410C"/>
<path d="M16 30.3333C15.4533 30.3333 15 29.88 15 29.3333V28C15 27.4533 15.4533 27 16 27C16.5467 27 17 27.4533 17 28V29.3333C17 29.88 16.5467 30.3333 16 30.3333Z" fill="#C2410C"/>
<path d="M2.66679 30.3331C2.58679 30.3331 2.5068 30.3198 2.4268 30.3064C1.89347 30.1731 1.56013 29.6265 1.69346 29.0931L3.0268 23.7598C3.16013 23.2265 3.69345 22.8931 4.24011 23.0265C4.77345 23.1598 5.10678 23.7064 4.97345 24.2398L3.64012 29.5731C3.52012 30.0264 3.12012 30.3331 2.66679 30.3331Z" fill="#C2410C"/>
<path d="M29.3329 30.3329C28.8796 30.3329 28.4796 30.0262 28.3596 29.5729L27.0263 24.2396C26.8929 23.7062 27.2129 23.1596 27.7596 23.0263C28.2929 22.8929 28.8396 23.2129 28.9729 23.7596L30.3063 29.0929C30.4396 29.6263 30.1196 30.1729 29.5729 30.3062C29.4929 30.3196 29.4129 30.3329 29.3329 30.3329Z" fill="#C2410C"/>
<path opacity="0.4" d="M25.6816 12.6941C25.5349 11.1208 25.1216 9.4541 22.0683 9.4541H9.93495C6.88162 9.4541 6.46829 11.1341 6.32163 12.6941L5.78828 18.4807C5.72162 19.2007 5.96162 19.9207 6.45495 20.4674C6.96162 21.014 7.68163 21.3341 8.4283 21.3341H10.215C11.7483 21.3341 12.0416 20.4541 12.2416 19.8674L12.4283 19.294C12.6416 18.6407 12.695 18.4807 13.5616 18.4807H18.4283C19.2816 18.4807 19.3083 18.574 19.5616 19.294L19.7483 19.8674C19.9483 20.4541 20.2416 21.3341 21.775 21.3341H23.5616C24.3083 21.3341 25.0283 21.014 25.5349 20.4674C26.0283 19.934 26.2683 19.2007 26.2016 18.4807L25.6816 12.6941Z" fill="#C2410C"/>
<path d="M24.561 6.587H23.6144C23.601 6.587 23.601 6.587 23.601 6.587L23.241 4.86702C22.8944 3.20036 22.1877 1.66699 19.3477 1.66699H16.721H15.2944H12.6677C9.8277 1.66699 9.12104 3.20036 8.77437 4.86702L8.41437 6.587C8.40103 6.587 8.40104 6.587 8.40104 6.587H7.45437C7.05437 6.587 6.73438 6.90697 6.73438 7.30697C6.73438 7.70697 7.05437 8.02702 7.45437 8.02702H8.13438L7.73438 9.93367C8.25438 9.64034 8.96105 9.45369 9.94771 9.45369H22.081C23.0677 9.45369 23.7877 9.64034 24.2944 9.93367L23.8944 8.02702H24.5744C24.9744 8.02702 25.2944 7.70697 25.2944 7.30697C25.281 6.90697 24.961 6.587 24.561 6.587Z" fill="#C2410C"/>
<path d="M13.1476 14.6803H10.2942C9.89423 14.6803 9.57422 14.3602 9.57422 13.9602C9.57422 13.5602 9.89423 13.2402 10.2942 13.2402H13.1476C13.5476 13.2402 13.8676 13.5602 13.8676 13.9602C13.8542 14.3602 13.5342 14.6803 13.1476 14.6803Z" fill="#C2410C"/>
<path d="M21.71 14.6803H18.8567C18.4567 14.6803 18.1367 14.3602 18.1367 13.9602C18.1367 13.5602 18.4567 13.2402 18.8567 13.2402H21.71C22.11 13.2402 22.4301 13.5602 22.4301 13.9602C22.4301 14.3602 22.11 14.6803 21.71 14.6803Z" fill="#C2410C"/>
</svg>
